<svg width="36" height="36" viewBox="0 0 36 36" fill="none" xmlns="http://www.w3.org/2000/svg">
<g id="Close icon">
<path id="Vector" d="M24.7572 18C26.5608 16.0812 28.3284 14.1156 30.0636 12.078C30.7836 11.2284 30.7764 9.98281 30.06 9.12961C29.0916 7.97761 28.026 6.90841 26.8704 5.94001C26.0172 5.22361 24.768 5.21281 23.922 5.93641C21.8844 7.67161 19.9188 9.43921 18 11.2428C16.0812 9.43921 14.1156 7.67161 12.078 5.93641C11.2284 5.21641 9.98281 5.22361 9.12961 5.94001C7.97761 6.90841 6.90841 7.97401 5.94001 9.12961C5.22361 9.98281 5.21281 11.232 5.93641 12.078C7.67161 14.1156 9.43921 16.0812 11.2428 18C9.43921 19.9188 7.67161 21.8844 5.93641 23.922C5.21641 24.7716 5.22361 26.0172 5.94001 26.8704C6.90841 28.0224 7.97401 29.0916 9.12961 30.06C9.98281 30.7764 11.232 30.7872 12.078 30.0636C14.1156 28.3284 16.0812 26.5608 18 24.7572C19.9188 26.5608 21.8844 28.3284 23.922 30.0636C24.7716 30.7836 26.0172 30.7764 26.8704 30.06C28.0224 29.0916 29.0916 28.026 30.06 26.8704C30.7764 26.0172 30.7872 24.768 30.0636 23.922C28.3284 21.8844 26.5608 19.9188 24.7572 18Z" fill="#FF7F50"/>
<path id="Vector_2" d="M15.7788 20.9016C15.678 20.9016 15.5772 20.8584 15.5088 20.7792C15.3792 20.628 15.3936 20.4012 15.5412 20.2716C16.1136 19.7712 17.0352 19.4724 18.0108 19.4724C18.9864 19.4724 19.872 19.7568 20.4516 20.2464C20.6028 20.376 20.6208 20.6028 20.4948 20.754C20.3652 20.9052 20.1384 20.9232 19.9872 20.7972C19.5408 20.4192 18.8028 20.1924 18.0108 20.1924C17.2188 20.1924 16.4592 20.4228 16.0164 20.8116C15.948 20.8728 15.8652 20.9016 15.7788 20.9016Z" fill="#4A254B"/>
<path id="Vector_3" d="M15.8724 21.114C15.7212 21.114 15.5844 21.0204 15.5304 20.8728C15.4836 20.736 15.354 20.6136 15.2424 20.5524C15.0696 20.4552 15.0084 20.2356 15.1056 20.0628C15.2028 19.89 15.4224 19.8288 15.5952 19.926C15.8796 20.088 16.11 20.3544 16.2072 20.6388C16.272 20.826 16.1712 21.0312 15.984 21.096C15.9444 21.1104 15.9048 21.1176 15.8652 21.1176L15.8724 21.114Z" fill="#4A254B"/>
<path id="Vector_4" d="M20.1276 21.114C20.088 21.114 20.0484 21.1068 20.0088 21.0924C19.8216 21.0276 19.7208 20.8224 19.7856 20.6352C19.8828 20.3508 20.1132 20.0844 20.3976 19.9224C20.5704 19.8252 20.79 19.8864 20.8872 20.0592C20.9844 20.232 20.9232 20.4516 20.7504 20.5488C20.6424 20.61 20.5092 20.7324 20.4624 20.8692C20.412 21.0168 20.2716 21.1104 20.1204 21.1104L20.1276 21.114Z" fill="#4A254B"/>
<g id="Group">
<path id="Vector_5" d="M15.1199 18.72C16.1141 18.72 16.9199 17.9141 16.9199 16.92C16.9199 15.9259 16.1141 15.12 15.1199 15.12C14.1258 15.12 13.3199 15.9259 13.3199 16.92C13.3199 17.9141 14.1258 18.72 15.1199 18.72Z" fill="white"/>
<path id="Vector_6" d="M15.12 17.82C15.617 17.82 16.02 17.4171 16.02 16.92C16.02 16.423 15.617 16.02 15.12 16.02C14.6229 16.02 14.22 16.423 14.22 16.92C14.22 17.4171 14.6229 17.82 15.12 17.82Z" fill="#4A254B"/>
<path id="Vector_7" d="M20.88 18.72C21.8741 18.72 22.68 17.9141 22.68 16.92C22.68 15.9259 21.8741 15.12 20.88 15.12C19.8858 15.12 19.08 15.9259 19.08 16.92C19.08 17.9141 19.8858 18.72 20.88 18.72Z" fill="white"/>
<path id="Vector_8" d="M20.88 17.82C21.377 17.82 21.78 17.4171 21.78 16.92C21.78 16.423 21.377 16.02 20.88 16.02C20.3829 16.02 19.98 16.423 19.98 16.92C19.98 17.4171 20.3829 17.82 20.88 17.82Z" fill="#4A254B"/>
</g>
</g>
</svg>
