<svg width="55" height="55" viewBox="0 0 55 55" fill="none" xmlns="http://www.w3.org/2000/svg">
<g id="Instagram">
<path id="Vector" d="M17.5998 3.29999C9.71554 3.29999 3.2998 9.71572 3.2998 17.6V37.4C3.2998 45.2843 9.71554 51.7 17.5998 51.7H37.3998C45.2841 51.7 51.6998 45.2843 51.6998 37.4V17.6C51.6998 9.71572 45.2841 3.29999 37.3998 3.29999H17.5998ZM17.5998 5.49999H37.3998C44.0949 5.49999 49.4998 10.9049 49.4998 17.6V37.4C49.4998 44.0951 44.0949 49.5 37.3998 49.5H17.5998C10.9047 49.5 5.4998 44.0951 5.4998 37.4V17.6C5.4998 10.9049 10.9047 5.49999 17.5998 5.49999ZM40.6998 12.1C40.1163 12.1 39.5567 12.3318 39.1442 12.7444C38.7316 13.1569 38.4998 13.7165 38.4998 14.3C38.4998 14.8835 38.7316 15.443 39.1442 15.8556C39.5567 16.2682 40.1163 16.5 40.6998 16.5C41.2833 16.5 41.8429 16.2682 42.2554 15.8556C42.668 15.443 42.8998 14.8835 42.8998 14.3C42.8998 13.7165 42.668 13.1569 42.2554 12.7444C41.8429 12.3318 41.2833 12.1 40.6998 12.1ZM27.4998 15.4C20.8302 15.4 15.3998 20.8304 15.3998 27.5C15.3998 34.1696 20.8302 39.6 27.4998 39.6C34.1694 39.6 39.5998 34.1696 39.5998 27.5C39.5998 20.8304 34.1694 15.4 27.4998 15.4ZM27.4998 17.6C32.9805 17.6 37.3998 22.0193 37.3998 27.5C37.3998 32.9806 32.9805 37.4 27.4998 37.4C22.0192 37.4 17.5998 32.9806 17.5998 27.5C17.5998 22.0193 22.0192 17.6 27.4998 17.6Z" fill="#FFFFF0"/>
</g>
</svg>
